<?xml version="1.0" standalone="no"?>
<!DOCTYPE svg PUBLIC "-//W3C//DTD SVG 20010904//EN"
 "http://www.w3.org/TR/2001/REC-SVG-20010904/DTD/svg10.dtd">
<svg version="1.0" xmlns="http://www.w3.org/2000/svg"
 width="1920.000000pt" height="1761.000000pt" viewBox="0 0 1920.000000 1761.000000"
 preserveAspectRatio="xMidYMid meet">

<g transform="translate(0.000000,1761.000000) scale(0.100000,-0.100000)"
fill="#000000" stroke="none">
<path d="M3397 17600 c-114 -18 -193 -42 -294 -90 -282 -133 -467 -377 -530
-698 -14 -72 -17 -149 -18 -439 0 -193 -2 -354 -5 -357 -3 -3 -87 -7 -185 -9
-203 -5 -294 -20 -423 -72 -284 -112 -511 -347 -604 -621 -55 -166 -57 -196
-61 -1094 -5 -830 -6 -884 -46 -1245 -5 -49 -13 -119 -16 -155 -3 -36 -28
-279 -55 -540 -27 -261 -52 -497 -55 -525 -2 -27 -25 -243 -50 -480 -24 -236
-67 -648 -95 -915 -103 -1000 -150 -1446 -155 -1490 -2 -25 -7 -72 -10 -105
-4 -33 -17 -163 -31 -290 -13 -126 -35 -340 -49 -475 -14 -135 -43 -416 -65
-625 -88 -840 -122 -1161 -146 -1395 -13 -135 -40 -389 -59 -565 -19 -176 -37
-347 -40 -380 -9 -97 -13 -132 -55 -530 -22 -209 -43 -402 -45 -430 -3 -27
-23 -221 -45 -430 -22 -209 -42 -402 -45 -430 -3 -27 -27 -264 -55 -525 -28
-261 -53 -500 -55 -530 -3 -30 -21 -199 -40 -375 -77 -717 -82 -836 -40 -1001
98 -388 413 -681 822 -763 l101 -21 7559 0 c8158 0 7666 -3 7824 50 366 124
617 416 698 817 11 53 26 100 33 104 7 5 281 9 608 9 641 1 671 3 825 54 364
122 626 423 691 791 22 128 17 332 -31 1136 -24 415 -47 810 -50 879 -3 69
-26 465 -50 880 -25 415 -49 850 -55 965 -5 116 -12 244 -15 285 -8 123 -84
1445 -90 1575 -5 97 -69 1229 -90 1575 -2 47 -7 139 -10 205 -3 66 -26 464
-50 885 -24 421 -48 862 -55 980 -10 203 -31 575 -65 1150 -8 140 -19 347 -25
460 -5 113 -15 309 -21 435 -6 127 -12 588 -13 1025 -2 701 -4 806 -19 889
-33 181 -89 311 -192 446 -68 89 -120 139 -220 211 -200 143 -415 204 -724
204 l-119 0 -5 383 c-5 391 -8 420 -51 557 -50 161 -162 323 -304 440 -323
268 -780 290 -1144 55 -126 -82 -270 -243 -327 -367 -87 -188 -94 -236 -100
-683 l-6 -380 -624 -3 c-430 -1 -628 1 -635 8 -7 7 -11 129 -12 358 -1 372 -8
447 -51 571 -99 291 -311 507 -585 601 -130 44 -194 54 -328 54 -424 1 -779
-255 -909 -654 -45 -140 -52 -218 -54 -645 l-2 -290 -632 -3 -632 -2 -7 56
c-3 31 -4 161 -1 288 8 372 -17 545 -107 729 -155 314 -496 526 -849 527 -389
1 -749 -241 -894 -600 -66 -165 -86 -346 -81 -734 l3 -261 -632 -3 -632 -2 -7
46 c-4 26 -4 158 -2 293 3 135 1 291 -4 346 -24 274 -114 472 -291 642 -193
185 -448 282 -707 269 -259 -12 -465 -107 -655 -300 -127 -130 -199 -262 -243
-450 -13 -57 -17 -149 -21 -456 l-6 -385 -632 -3 -631 -2 -7 37 c-3 21 -5 180
-4 353 2 261 -1 331 -15 409 -72 392 -340 679 -721 772 -94 23 -265 32 -348
19z m240 -662 c39 -14 74 -38 109 -72 89 -90 85 -44 82 -897 l-3 -744 -25 -48
c-29 -58 -86 -112 -149 -141 -35 -16 -66 -21 -131 -21 -73 0 -93 4 -142 28
-32 16 -75 48 -97 73 -74 84 -71 50 -71 879 l0 741 26 52 c71 142 246 208 401
150z m3197 2 c72 -27 139 -88 173 -158 l28 -57 0 -740 0 -740 -28 -57 c-32
-65 -90 -121 -156 -152 -65 -30 -197 -30 -262 0 -63 29 -120 83 -149 141 l-25
48 -3 740 c-2 546 0 751 9 783 44 161 245 254 413 192z m3232 -13 c60 -30 118
-92 148 -156 21 -46 21 -51 21 -786 l0 -740 -28 -57 c-114 -233 -451 -236
-567 -5 l-30 60 0 741 0 741 26 55 c57 124 159 183 304 177 56 -3 88 -10 126
-30z m3200 0 c67 -34 106 -74 141 -145 l28 -57 0 -740 0 -740 -28 -57 c-32
-65 -90 -121 -156 -151 -70 -33 -188 -30 -262 4 -62 29 -120 84 -153 144 -21
40 -21 44 -24 790 l-2 750 30 62 c36 73 97 128 173 155 75 27 185 20 253 -15z
m3200 0 c68 -34 111 -79 143 -147 l26 -55 0 -740 c0 -737 0 -740 -22 -787 -30
-66 -95 -132 -156 -159 -77 -34 -192 -33 -268 2 -72 34 -134 99 -159 166 -19
52 -20 79 -20 786 0 702 1 734 20 775 40 89 106 150 192 178 67 22 182 13 244
-19z m-13915 -1573 c5 -3 9 -32 9 -64 0 -77 23 -196 57 -294 27 -78 27 -78 8
-110 -49 -82 -60 -113 -63 -183 -6 -104 17 -162 93 -239 103 -105 53 -99 875
-99 l705 0 68 33 c87 43 137 104 163 197 22 85 11 167 -37 260 l-32 63 31 94
c30 93 50 199 55 293 l2 50 635 0 635 0 7 -95 c8 -98 29 -190 69 -298 22 -61
23 -64 6 -90 -49 -74 -62 -116 -62 -197 0 -71 4 -89 34 -149 37 -75 88 -120
175 -152 48 -18 88 -19 756 -19 796 0 759 -3 848 79 119 110 135 290 38 435
l-35 51 23 53 c32 71 57 184 64 292 l7 90 638 3 637 2 0 -59 c0 -80 25 -205
60 -304 l29 -82 -42 -84 c-39 -78 -42 -89 -42 -165 0 -66 5 -90 24 -131 35
-70 97 -128 167 -156 l59 -24 665 -3 c393 -2 690 1 727 7 83 13 129 36 185 93
58 60 88 135 88 222 0 75 -12 113 -56 183 l-33 51 34 94 c32 91 52 197 58 303
l2 50 638 3 637 2 1 -52 c0 -29 2 -60 3 -68 2 -8 6 -40 10 -70 4 -30 23 -103
43 -162 l35 -107 -26 -34 c-102 -134 -72 -358 61 -450 96 -66 44 -62 838 -62
l720 0 52 24 c173 78 233 300 128 475 l-33 55 29 75 c30 78 59 221 60 296 1
89 -69 80 643 80 l632 0 12 -119 c8 -90 20 -147 48 -229 l37 -109 -30 -44
c-42 -61 -55 -108 -55 -195 1 -129 64 -228 181 -283 l56 -26 715 0 c660 0 719
1 761 18 132 51 206 170 197 317 -3 57 -11 83 -44 147 l-41 78 19 45 c33 76
59 185 71 296 l12 107 145 -1 c197 -2 274 -28 367 -124 52 -54 89 -126 103
-203 7 -41 10 -256 8 -680 l-3 -620 -7995 0 -7995 0 -3 615 c-1 348 2 636 7
665 39 208 160 316 386 346 61 8 220 3 236 -7z m15322 -2281 c3 -5 -13 -145
-34 -313 -21 -168 -41 -332 -44 -365 -4 -33 -29 -240 -56 -460 -27 -220 -51
-420 -54 -445 -2 -25 -23 -193 -45 -375 -22 -181 -42 -350 -45 -375 -3 -25
-23 -189 -45 -365 -21 -176 -41 -340 -44 -364 -3 -25 -8 -63 -11 -85 -2 -23
-28 -228 -55 -456 -28 -228 -73 -595 -100 -815 -27 -220 -72 -587 -100 -815
-28 -228 -71 -577 -95 -775 -25 -198 -70 -565 -100 -815 -70 -572 -142 -1160
-205 -1675 -27 -220 -75 -605 -105 -855 -31 -250 -76 -619 -100 -820 -25 -201
-47 -385 -50 -410 -8 -67 -11 -89 -49 -405 -20 -159 -57 -459 -82 -665 -62
-515 -73 -557 -168 -654 -61 -62 -137 -101 -226 -116 -46 -7 -2258 -10 -7570
-8 -6819 3 -7510 5 -7555 19 -142 45 -238 143 -275 278 -18 67 -14 194 14 451
14 129 33 303 40 385 8 83 31 299 50 480 20 182 38 353 41 380 2 28 25 244 50
480 24 237 70 666 100 955 30 289 57 548 60 575 2 28 22 221 45 430 22 209 60
576 85 815 25 239 48 454 50 478 3 24 9 94 15 155 6 62 26 256 45 432 19 176
39 370 45 430 5 61 12 128 15 150 3 22 23 213 45 425 22 212 62 603 90 870 28
267 53 510 56 540 2 30 13 138 24 240 47 446 69 660 75 725 4 39 20 194 36
345 16 151 42 410 59 575 17 165 48 473 70 685 22 212 42 408 45 435 11 121
66 643 71 673 l5 32 7989 0 c4394 0 7991 -3 7993 -7z m252 -3365 c4 -12 55
-892 70 -1198 3 -63 28 -504 55 -980 27 -476 52 -921 55 -990 3 -69 23 -426
45 -795 21 -368 41 -726 45 -795 3 -69 26 -465 50 -880 24 -415 47 -809 50
-875 3 -66 19 -354 36 -640 34 -578 33 -606 -22 -721 -51 -108 -150 -178 -293
-205 -69 -13 -1073 -12 -1081 1 -4 6 7 120 24 253 17 133 53 427 80 652 66
537 151 1231 156 1275 21 179 104 857 140 1145 25 198 47 383 50 410 3 28 28
230 55 450 27 220 72 585 100 810 27 226 74 615 105 865 31 250 78 640 106
865 27 226 70 572 94 770 55 440 53 412 54 513 1 49 5 82 11 82 6 0 13 -6 15
-12z"/>
<path d="M9588 12164 c-208 -38 -422 -162 -549 -320 -88 -110 -157 -239 -197
-374 -11 -35 -155 -482 -369 -1140 -63 -195 -118 -358 -122 -362 -4 -4 -382
-8 -841 -9 -459 0 -871 -5 -915 -10 -167 -19 -299 -67 -429 -153 -344 -230
-485 -660 -350 -1066 85 -257 171 -347 684 -715 708 -508 969 -701 977 -721 6
-15 -23 -107 -328 -1038 -99 -302 -186 -579 -194 -615 -77 -368 55 -731 346
-951 96 -72 213 -129 329 -161 73 -20 107 -24 240 -23 139 1 164 3 245 28 50
15 128 48 174 73 79 42 115 66 246 163 28 20 208 151 400 290 193 140 449 326
570 415 121 89 226 165 233 169 15 9 359 -235 1082 -769 439 -325 542 -371
830 -369 139 1 164 4 245 28 306 93 532 307 631 598 35 105 47 204 41 340 -7
152 -16 186 -192 718 -170 515 -355 1093 -354 1105 0 6 42 40 92 76 51 36 207
149 347 251 140 101 388 280 550 398 418 302 447 326 548 459 55 74 126 217
152 311 31 109 38 299 16 410 -49 238 -190 457 -381 589 -94 66 -183 106 -305
139 l-95 26 -895 3 c-492 2 -897 7 -901 11 -3 4 -41 115 -83 247 -290 899
-443 1361 -477 1433 -117 252 -333 435 -597 503 -101 26 -298 33 -404 13z
m277 -650 c55 -26 101 -71 133 -133 18 -33 75 -194 128 -358 269 -841 486
-1499 512 -1548 41 -80 121 -134 227 -154 42 -8 353 -11 1025 -10 961 1 965 1
1022 -21 196 -73 244 -316 93 -465 -22 -22 -196 -152 -385 -289 -190 -137
-376 -273 -415 -301 -38 -28 -135 -99 -215 -157 -80 -57 -218 -158 -308 -224
-90 -65 -182 -132 -205 -148 -107 -73 -162 -169 -162 -281 1 -74 -15 -24 280
-925 40 -124 98 -301 128 -395 30 -93 88 -269 128 -390 62 -190 72 -230 72
-290 0 -79 -17 -126 -64 -180 -68 -77 -171 -114 -261 -96 -75 16 -115 42 -538
352 -69 51 -255 187 -415 302 -159 116 -339 247 -400 292 -353 261 -394 283
-522 272 -86 -7 -141 -36 -328 -173 -185 -136 -1112 -810 -1301 -946 -105 -75
-165 -101 -234 -102 -102 0 -211 67 -256 160 -24 49 -26 62 -22 137 4 67 18
120 76 292 172 514 503 1539 523 1618 15 62 6 146 -22 205 -32 66 -90 120
-274 253 -1241 897 -1395 1010 -1425 1054 -38 56 -50 98 -50 174 0 121 61 206
180 253 l55 22 945 -3 c628 -2 970 1 1020 8 105 15 193 61 236 123 23 34 63
142 144 390 61 189 120 368 130 398 18 52 200 614 309 953 70 219 97 266 175
312 78 45 189 54 261 19z"/>
<path d="M15921 5125 c-30 -9 -70 -25 -90 -37 -20 -11 -223 -208 -452 -436
l-417 -414 -69 40 c-405 237 -915 284 -1358 126 -295 -106 -581 -322 -755
-572 -282 -404 -370 -904 -239 -1369 77 -273 213 -501 423 -708 244 -240 522
-381 871 -441 122 -21 462 -12 580 15 345 80 649 258 868 508 225 257 370 595
393 916 3 45 7 87 8 92 2 6 0 71 -5 145 -15 263 -85 490 -230 747 l-24 42 421
423 c305 307 427 435 442 468 62 131 43 263 -54 370 -72 80 -203 115 -313 85z
m-1591 -1304 c79 -21 150 -50 150 -60 0 -3 -90 -96 -200 -206 l-200 -200 -203
203 c-161 162 -199 205 -187 213 21 13 172 59 229 69 83 16 328 4 411 -19z
m-770 -855 c389 -389 392 -391 533 -384 136 6 138 8 519 386 l337 336 16 -36
c8 -20 24 -70 35 -110 132 -487 -130 -1001 -592 -1157 -132 -45 -194 -55 -333
-55 -102 0 -149 5 -220 23 -370 94 -638 383 -712 765 -20 107 -13 291 16 401
22 82 52 165 61 165 2 0 155 -150 340 -334z"/>
<path d="M2800 5116 c-65 -18 -100 -39 -147 -87 -67 -67 -87 -118 -87 -224 -1
-72 3 -99 20 -136 31 -67 87 -124 152 -156 l57 -28 1365 0 1365 0 57 28 c62
30 115 83 150 149 19 36 22 58 22 138 0 79 -4 103 -23 142 -33 68 -90 124
-157 156 l-59 27 -1335 2 c-1042 1 -1345 -1 -1380 -11z"/>
<path d="M4689 3827 c-58 -22 -106 -55 -139 -97 -50 -63 -63 -106 -64 -205 -1
-77 3 -98 25 -145 33 -70 80 -117 146 -147 51 -24 56 -24 315 -21 296 3 302 5
377 80 63 64 75 98 79 219 3 91 1 112 -17 150 -31 66 -72 111 -132 144 l-54
30 -250 2 c-188 2 -259 0 -286 -10z"/>
<path d="M2447 3786 c-92 -33 -175 -124 -198 -219 -15 -63 -7 -161 19 -219 28
-65 93 -132 155 -159 l52 -24 565 0 c556 0 566 0 611 21 67 31 124 87 156 152
25 50 28 68 28 147 -1 75 -5 98 -25 140 -34 69 -99 130 -166 154 -53 20 -73
21 -607 21 -438 -1 -560 -4 -590 -14z"/>
<path d="M2113 2499 c-64 -25 -131 -88 -163 -154 -21 -43 -25 -64 -25 -145 0
-86 3 -100 30 -148 16 -30 51 -73 77 -97 88 -79 53 -76 1033 -73 l860 3 57 28
c62 31 115 84 149 149 19 36 23 60 23 138 1 80 -3 102 -23 140 -36 69 -107
137 -169 160 -51 19 -78 20 -925 19 -848 0 -873 -1 -924 -20z"/>
</g>
</svg>
