<?xml version="1.0" standalone="no"?>
<!DOCTYPE svg PUBLIC "-//W3C//DTD SVG 20010904//EN" "http://www.w3.org/TR/2001/REC-SVG-20010904/DTD/svg10.dtd">
<svg version="1.0" xmlns="http://www.w3.org/2000/svg" width="512.000000pt" height="512.000000pt"
  viewBox="0 0 512.000000 512.000000" preserveAspectRatio="xMidYMid meet">

  <g transform="translate(0.000000,512.000000) scale(0.100000,-0.100000)" fill="#5B00B1" stroke="none">
    <path d="M2325 5109 c-502 -51 -966 -238 -1358 -546 -107 -83 -362 -344 -444
-453 -268 -359 -437 -765 -499 -1205 -25 -174 -25 -519 -1 -690 63 -436 236
-852 500 -1204 93 -123 285 -321 412 -426 777 -639 1859 -764 2754 -319 259
129 438 254 639 449 214 206 371 415 502 667 456 879 367 1924 -231 2725 -94
125 -366 397 -490 490 -352 263 -748 430 -1172 494 -153 23 -473 33 -612 18z
m367 -1297 c59 -26 127 -93 159 -157 24 -50 24 -51 27 -412 l3 -362 362 -3
c412 -3 413 -4 499 -90 70 -69 93 -127 93 -228 0 -70 -4 -94 -24 -135 -32 -63
-93 -124 -156 -156 -50 -24 -51 -24 -412 -27 l-362 -3 -3 -362 c-3 -361 -3
-362 -27 -412 -32 -63 -93 -124 -156 -156 -72 -35 -198 -35 -270 0 -63 32
-124 93 -156 156 -24 50 -24 51 -27 412 l-3 362 -362 3 c-361 3 -362 3 -412
27 -63 32 -124 93 -156 156 -35 72 -35 198 0 270 32 63 93 124 156 156 50 24
51 24 413 27 l362 3 0 343 c0 261 3 354 14 388 28 96 114 183 210 214 57 19
170 12 228 -14z" />
  </g>
</svg>