<?xml version="1.0" standalone="no"?>
<!DOCTYPE svg PUBLIC "-//W3C//DTD SVG 20010904//EN"
 "http://www.w3.org/TR/2001/REC-SVG-20010904/DTD/svg10.dtd">
<svg version="1.0" xmlns="http://www.w3.org/2000/svg"
 width="512.000000pt" height="512.000000pt" viewBox="0 0 512.000000 512.000000"
 preserveAspectRatio="xMidYMid meet">

<g transform="translate(0.000000,512.000000) scale(0.100000,-0.100000)"
fill="#000000" stroke="none">
<path d="M1602 3517 l-1602 -1602 313 -313 c171 -171 316 -312 321 -312 5 0
44 33 85 73 89 86 143 120 226 141 341 89 648 -218 559 -559 -21 -83 -55 -137
-141 -226 -40 -41 -73 -80 -73 -85 0 -5 141 -150 312 -321 l313 -313 1602
1602 1603 1603 -312 312 c-172 172 -317 313 -322 313 -5 0 -44 -33 -85 -73
-89 -86 -143 -120 -226 -141 -340 -89 -648 219 -560 559 21 79 70 157 149 235
36 35 66 69 66 75 0 5 -141 151 -313 323 l-312 312 -1603 -1603z m1717 1069
l104 -104 -41 -84 c-64 -128 -77 -190 -77 -353 1 -126 4 -148 29 -220 50 -144
123 -252 238 -351 69 -59 153 -106 253 -140 72 -25 94 -28 220 -29 163 0 225
13 353 77 l84 41 104 -104 c57 -57 104 -108 104 -114 0 -13 -2762 -2775 -2775
-2775 -6 0 -57 47 -114 104 l-104 104 41 84 c64 128 77 190 77 353 -1 126 -4
148 -29 220 -83 240 -251 408 -491 491 -72 25 -94 28 -220 29 -163 0 -225 -13
-353 -77 l-84 -41 -104 104 c-57 57 -104 108 -104 114 0 13 2762 2775 2775
2775 6 0 57 -47 114 -104z"/>
<path d="M2457 3522 l-107 -107 103 -103 c56 -56 107 -102 112 -102 13 0 205
192 205 205 0 6 -46 56 -103 113 l-102 102 -108 -108z"/>
<path d="M2880 3095 l-105 -105 108 -108 107 -107 107 107 108 108 -105 105
c-58 58 -107 105 -110 105 -3 0 -52 -47 -110 -105z"/>
<path d="M3307 2672 c-53 -53 -97 -102 -97 -107 0 -5 46 -56 102 -112 l103
-103 107 107 108 108 -102 102 c-57 57 -107 103 -113 103 -6 0 -54 -44 -108
-98z"/>
</g>
</svg>
