<?xml version="1.0" standalone="no"?>
<!DOCTYPE svg PUBLIC "-//W3C//DTD SVG 20010904//EN"
 "http://www.w3.org/TR/2001/REC-SVG-20010904/DTD/svg10.dtd">
<svg version="1.0" xmlns="http://www.w3.org/2000/svg"
 width="621.000000pt" height="622.000000pt" viewBox="0 0 621.000000 622.000000"
 preserveAspectRatio="xMidYMid meet">

<g transform="translate(0.000000,622.000000) scale(0.100000,-0.100000)"
fill="#000000" stroke="none">
<path d="M240 6191 c-83 -26 -150 -82 -191 -161 l-24 -45 0 -2875 0 -2875 27
-50 c31 -60 77 -104 138 -136 l45 -24 2875 0 2875 0 50 27 c60 31 104 77 136
138 l24 45 0 2875 0 2875 -24 45 c-32 61 -76 107 -136 138 l-50 27 -2860 2
c-1573 1 -2871 -2 -2885 -6z m5727 -224 l28 -27 3 -280 3 -280 -2891 0 -2891
0 3 279 c3 263 4 280 23 301 11 12 29 26 40 31 11 4 1288 7 2837 6 l2818 -2
27 -28z m28 -3239 l0 -2448 -28 -27 -27 -28 -2830 0 -2830 0 -27 28 -28 27 -3
2438 c-1 1340 0 2443 3 2450 3 10 586 12 2887 10 l2883 -3 0 -2447z"/>
<path d="M481 5776 c-57 -32 -68 -111 -22 -157 28 -28 33 -29 121 -29 102 0
132 12 149 61 15 43 3 85 -31 114 -26 22 -39 25 -111 25 -49 -1 -92 -6 -106
-14z"/>
<path d="M980 5762 c-24 -25 -30 -39 -30 -75 0 -38 5 -49 31 -71 28 -24 38
-26 121 -26 86 0 91 1 119 29 38 39 40 97 5 138 -23 26 -29 28 -120 31 -95 4
-96 4 -126 -26z"/>
<path d="M1511 5776 c-48 -27 -63 -84 -36 -136 22 -42 43 -50 140 -50 97 0
118 8 141 52 22 42 11 90 -27 122 -27 23 -39 26 -112 26 -49 -1 -92 -6 -106
-14z"/>
<path d="M4802 4735 c-39 -33 -50 -80 -28 -123 20 -39 44 -52 94 -52 58 0 92
35 92 94 0 59 -30 95 -86 103 -33 4 -45 1 -72 -22z"/>
<path d="M2726 4619 l-26 -31 0 -344 0 -344 29 -32 29 -33 218 -3 c120 -2 233
-1 252 3 51 9 82 45 82 95 0 95 -33 110 -250 110 l-160 0 0 271 c0 275 -3 298
-39 326 -9 7 -37 13 -63 13 -40 0 -50 -4 -72 -31z"/>
<path d="M3540 4437 c-221 -62 -294 -348 -132 -512 144 -146 396 -107 494 78
19 35 23 58 23 137 0 104 -14 144 -76 214 -66 76 -205 113 -309 83z m125 -201
c58 -24 82 -97 48 -146 -27 -39 -45 -49 -86 -50 -31 0 -46 7 -73 34 -22 22
-34 44 -34 60 0 41 28 86 63 101 40 18 41 18 82 1z"/>
<path d="M4260 4436 c-97 -26 -185 -114 -211 -211 -16 -59 -7 -162 19 -216 52
-106 155 -172 271 -172 36 0 76 3 89 7 18 6 22 4 22 -14 0 -28 -17 -61 -44
-82 -16 -13 -41 -18 -101 -18 -93 0 -123 -12 -149 -61 -23 -42 -17 -79 19
-115 23 -23 31 -24 137 -24 97 0 120 3 163 24 73 34 110 69 144 138 l31 61 0
317 c0 304 -1 318 -20 343 -27 34 -84 46 -121 24 -25 -14 -33 -14 -75 -1 -56
17 -113 17 -174 0z m124 -200 c71 -30 89 -109 37 -165 -23 -25 -37 -31 -70
-31 -91 0 -140 102 -81 166 23 24 52 42 73 43 4 1 23 -5 41 -13z"/>
<path d="M4799 4422 l-34 -30 -3 -239 c-3 -266 0 -276 61 -306 31 -16 42 -17
72 -7 64 21 65 27 65 302 0 242 0 247 -23 273 -14 17 -36 28 -63 32 -36 5 -46
1 -75 -25z"/>
<path d="M5123 4439 c-11 -6 -29 -25 -38 -43 -14 -27 -16 -62 -13 -268 3 -231
3 -237 26 -261 13 -14 37 -27 53 -31 37 -7 93 15 108 42 7 12 11 81 11 167 0
81 5 155 10 165 18 34 48 44 76 25 24 -15 24 -17 24 -174 0 -155 1 -160 25
-189 13 -16 38 -32 55 -36 38 -7 94 15 109 42 7 13 11 90 11 199 0 166 -2 181
-24 229 -45 96 -154 154 -260 139 -56 -8 -65 -8 -116 0 -19 2 -45 0 -57 -6z"/>
<path d="M1309 3601 c-88 -28 -154 -69 -218 -135 -98 -102 -141 -212 -141
-356 0 -149 44 -256 149 -361 105 -105 212 -149 361 -149 151 0 271 51 370
157 99 105 140 209 140 353 0 144 -41 248 -140 353 -63 68 -139 115 -229 141
-74 22 -219 20 -292 -3z m286 -214 c60 -30 114 -85 146 -147 20 -37 24 -60 24
-130 0 -73 -4 -92 -27 -135 -32 -60 -87 -114 -148 -146 -37 -20 -60 -24 -130
-24 -70 0 -93 4 -130 24 -61 32 -116 86 -148 146 -23 43 -27 62 -27 135 0 70
4 93 24 130 42 81 115 143 201 171 49 16 162 4 215 -24z"/>
<path d="M2729 3281 l-29 -29 0 -452 0 -452 29 -29 29 -29 1487 0 1487 0 29
29 29 29 0 452 0 452 -29 29 -29 29 -1487 0 -1487 0 -29 -29z m2861 -481 l0
-310 -1345 0 -1345 0 0 310 0 310 1345 0 1345 0 0 -310z"/>
<path d="M837 2479 c-193 -38 -360 -209 -396 -404 -16 -85 -15 -936 1 -970 26
-57 -15 -55 1018 -55 1040 0 994 -3 1019 58 9 21 11 151 9 503 -4 460 -4 476
-26 533 -56 148 -169 262 -318 318 -58 22 -64 23 -659 24 -342 1 -621 -2 -648
-7z m1260 -218 c66 -29 143 -111 169 -176 18 -46 19 -79 19 -440 l0 -390 -828
-3 -828 -2 3 397 c3 391 3 399 26 448 41 89 128 162 219 184 21 5 292 9 603 8
l565 -2 52 -24z"/>
<path d="M2754 2064 c-17 -8 -36 -26 -43 -40 -8 -17 -11 -160 -11 -470 l0
-446 29 -29 29 -29 1477 0 c1605 0 1517 -3 1543 55 9 19 12 146 12 465 l0 440
-29 32 -29 33 -1474 2 c-1311 2 -1476 1 -1504 -13z m2836 -504 l0 -310 -1345
0 -1345 0 0 310 0 310 1345 0 1345 0 0 -310z"/>
</g>
</svg>
